<?xml version="1.0" standalone="no"?><!DOCTYPE svg PUBLIC "-//W3C//DTD SVG 1.1//EN" "http://www.w3.org/Graphics/SVG/1.1/DTD/svg11.dtd"><svg t="1697704599143" class="icon" viewBox="0 0 1024 1024" version="1.1" xmlns="http://www.w3.org/2000/svg" p-id="20861" xmlns:xlink="http://www.w3.org/1999/xlink" width="200" height="200"><path d="M856.3 797.1h-84.9c-7.6 0-14.2 5.4-15.6 12.9l-2.7 13.6c-1.5 7.5-8 12.9-15.6 12.9h-62.6c33.3-32.1 51.8-75.2 55.6-129.4 3.5-49.6-9.3-88.5-38.2-116.7-17.3-16.9-39.3-28.8-66-36-13.9-3.7-15.8-22.9-2.9-29.4 19.5-10 35.9-21.8 49.2-35.4 24.6-25.3 38.3-56.8 40.9-94.4 3.8-54.4-11.2-95-45-121.8s-87-40.4-159.8-40.8l-34.4-0.1c-10 0-17.5-9.1-15.6-18.9l16.8-51c1.5-7.5 8-12.9 15.6-12.9h7.7c7.6 0 14.2-5.4 15.6-12.9l7.9-54.1c1.9-9.8-5.6-18.9-15.6-18.9H301.5c-7.6 0-14.2 5.4-15.6 12.9l-7.9 54.1c-1.9 9.8 5.6 19 15.6 19s17.5 9.1 15.6 18.9L152.1 941.2c-1.9 9.8 5.6 18.9 15.6 18.9h663.1c7.6 0 14.2-5.4 15.6-12.9L868 836.5l4-20.4c1.8-9.9-5.7-19-15.7-19zM448.6 277.3c11.9-0.7 20.1-1.1 24.7-1.1 51.6 0.3 89.6 10.6 114 31s35.2 50.9 32.4 91.4c-3.3 47.6-19.7 82.5-49 104.5-29.4 22.1-73.8 32.9-133.4 32.6-9.5-0.1-16.8-0.2-21.9-0.4h-0.6c-9.8-0.3-17-9.3-15.1-18.9l46.5-239c0.8 0 1.6-0.1 2.4-0.1z m188.8 436.1c-3.5 49.3-20.6 85.1-51.5 107.5-7.5 5.5-16.1 10.3-25.7 14.4-2 0.8-4.1 1.3-6.3 1.3H356.8c-10 0-17.5-9.1-15.6-18.9L384.5 595c1.4-7.3 7.7-12.6 15.1-12.9 21.9-0.7 42.4-1.3 49.6-1.8 15.6-1 29.5-1.5 41.8-1.5 52.5 0.3 90.8 11.5 114.9 33.7 24.1 22.2 34.6 55.8 31.5 100.9z" fill="#1e80ff" p-id="20862"></path></svg>