<?xml version="1.0" standalone="no"?><!DOCTYPE svg PUBLIC "-//W3C//DTD SVG 1.1//EN" "http://www.w3.org/Graphics/SVG/1.1/DTD/svg11.dtd"><svg t="1697707404128" class="icon" viewBox="0 0 1024 1024" version="1.1" xmlns="http://www.w3.org/2000/svg" p-id="48271" xmlns:xlink="http://www.w3.org/1999/xlink" width="200" height="200"><path d="M859.8 452.8h-46.5V308.1c0-51.7-41.3-98.2-98.2-98.2H570.5v-46.5c0-51.7-41.3-98.2-98.2-98.2-51.7 0-98.2 41.3-98.2 98.2v46.5H229.5c-51.7 0-98.2 41.3-98.2 98.2v144.7h46.5c51.7 0 98.2 41.3 98.2 98.2 0 51.7-41.3 98.2-98.2 98.2h-46.5v144.7c0 51.7 41.3 98.2 98.2 98.2h144.7v-46.5c0-51.7 41.3-98.2 98.2-98.2 51.7 0 98.2 41.3 98.2 98.2V892h144.7c51.7 0 98.2-41.3 98.2-98.2V649.1H860c51.7 0 98.2-41.3 98.2-98.2-0.2-56.8-46.7-98.1-98.4-98.1z" fill="#00AA88" p-id="48272"></path></svg>