<?xml version="1.0" standalone="no"?><!DOCTYPE svg PUBLIC "-//W3C//DTD SVG 1.1//EN" "http://www.w3.org/Graphics/SVG/1.1/DTD/svg11.dtd"><svg t="1697706325015" class="icon" viewBox="0 0 1024 1024" version="1.1" xmlns="http://www.w3.org/2000/svg" p-id="44227" xmlns:xlink="http://www.w3.org/1999/xlink" width="200" height="200"><path d="M263.224348 742.543656c-8.388209-17.48094-15.445433-35.630375-21.177677-54.204123L76.358023 854.028181l-44.903239 154.268195 154.268195-44.903239 134.211347-134.21335c-22.566705-26.281454-41.764916-55.491076-56.709978-86.636131zM996.22494 43.528221c-17.941281-17.941281-41.79694-27.822595-67.171723-27.822595-25.372782 0-49.228441 9.881314-67.171723 27.822595a94.988314 94.988314 0 0 0-26.817851 53.701752l107.475557 107.475557c20.16893-2.912156 39.112953-12.265079 53.68574-26.837866 37.035415-37.039418 37.035415-97.304028 0-134.339443zM751.415724 100.300246l-42.457429 42.457428 39.335118 39.335117-53.165355 53.165355h104.185121v114.54479l58.345189-58.345189 39.335117 39.337119 42.457429-42.457429zM760.176209 742.429572c-14.931052 31.018961-34.075224 60.106493-56.571877 86.287873l134.675692 134.675692 154.268194 44.903239-44.903239-154.268195-166.120968-166.120968c-5.772273 18.685832-12.885538 36.943347-21.347802 54.522359zM224.29353 235.258146h104.581415l-53.165355-53.165355 39.335117-39.335117-42.457429-42.457428-188.03519 188.037191 42.457429 42.457429 39.335117-39.335117 57.948896 57.946894zM188.889322 96.905733a94.990315 94.990315 0 0 0-26.769816-53.379513C144.176224 25.584939 120.320565 15.703624 94.947784 15.703624c-25.374783 0-49.230442 9.881314-67.171723 27.822596-37.035415 37.037416-37.035415 97.302026 0 134.339442 14.496731 14.496731 33.316662 23.823635 53.365503 26.78783zM739.268732 295.302593H284.337977v276.130401c0 102.303729 45.771882 197.688336 125.580959 261.693715l101.292981 81.236134 101.843388-81.274162c80.211375-64.009382 126.215429-159.576124 126.215429-262.20009V295.302593z m-172.423634 479.879223l-55.519097 44.304796-55.058756-44.156686c-62.182029-49.870916-97.848431-124.187928-97.848431-203.898933V369.387433h306.767079v201.501158c0 79.959189-35.844533 154.420307-98.340795 204.293225z" p-id="44228" fill="#8d8df9"></path><path d="M418.463261 571.432994c0 61.397449 27.472336 118.643824 75.369791 157.05826l17.585017 14.102439 17.971303-14.342617c48.139635-38.416437 75.750073-95.772894 75.750073-157.362485v-141.456711h-186.678186v142.001114z" p-id="44229" fill="#8d8df9"></path></svg>